<?xml version="1.0" encoding="UTF-8" standalone="no"?>
<!DOCTYPE svg PUBLIC "-//W3C//DTD SVG 1.1//EN" "http://www.w3.org/Graphics/SVG/1.1/DTD/svg11.dtd">
<svg width="100%" height="100%" viewBox="0 0 1081 1080" version="1.1" xmlns="http://www.w3.org/2000/svg" xmlns:xlink="http://www.w3.org/1999/xlink" xml:space="preserve" xmlns:serif="http://www.serif.com/" style="fill-rule:evenodd;clip-rule:evenodd;stroke-linejoin:round;stroke-miterlimit:2;">
    <g transform="matrix(1,0,0,1,-1135,0)">
        <g id="scanner" transform="matrix(1,0,0,1,1135.84,0)">
            <rect x="0" y="0" width="1080" height="1080" style="fill:none;"/>
            <g transform="matrix(53.9,0,0,53.9,-107.802,-106.802)">
                <path d="M15,4.5L13.001,4.5L13.001,9.302L6.055,5.273C5.085,4.711 3.846,5.045 3.286,6.02L2.272,7.78C1.711,8.755 2.046,10.001 3.016,10.564L4.556,7.94L5.944,7.568L6.691,8.002L6.468,8.387C6.468,8.387 6.463,8.384 6.461,8.383C6.461,8.383 6.46,8.383 6.46,8.383C6.433,8.386 6.062,8.425 5.777,8.455C5.562,8.477 5.359,8.567 5.199,8.712C5.114,8.788 5.02,8.873 4.936,8.949C4.775,9.093 4.665,9.285 4.62,9.496C4.596,9.607 4.57,9.731 4.546,9.842C4.501,10.053 4.524,10.274 4.612,10.471C4.659,10.576 4.711,10.692 4.758,10.797C4.845,10.994 4.993,11.158 5.18,11.266C5.278,11.322 5.388,11.386 5.487,11.443C5.673,11.55 5.889,11.596 6.104,11.574C6.218,11.562 6.345,11.549 6.458,11.537C6.673,11.514 6.876,11.424 7.036,11.28C7.121,11.204 7.215,11.119 7.299,11.043C7.46,10.898 7.57,10.707 7.615,10.496C7.639,10.385 7.665,10.261 7.689,10.15C7.734,9.938 7.711,9.718 7.623,9.521C7.501,9.249 7.342,8.892 7.342,8.892C7.342,8.892 7.34,8.891 7.338,8.89C7.337,8.889 7.336,8.888 7.336,8.887C7.335,8.885 7.336,8.884 7.336,8.883C7.36,8.841 7.557,8.502 7.557,8.502L12.922,11.606L12.425,12.467L10.671,11.447L9.657,13.212L11.412,14.23L10.895,15.133L17.947,19.227C18.918,19.79 20.155,19.455 20.715,18.48L21.727,16.719C22.288,15.744 21.956,14.499 20.986,13.936L15.001,10.463L15,4.5Z" style="fill-rule:nonzero;"/>
            </g>
        </g>
    </g>
</svg>
