<?xml version="1.0" encoding="UTF-8" standalone="no"?>
<!DOCTYPE svg PUBLIC "-//W3C//DTD SVG 1.1//EN" "http://www.w3.org/Graphics/SVG/1.1/DTD/svg11.dtd">
<svg width="100%" height="100%" viewBox="0 0 1081 1081" version="1.1" xmlns="http://www.w3.org/2000/svg" xmlns:xlink="http://www.w3.org/1999/xlink" xml:space="preserve" xmlns:serif="http://www.serif.com/" style="fill-rule:evenodd;clip-rule:evenodd;stroke-linejoin:round;stroke-miterlimit:2;">
    <g transform="matrix(1,0,0,1,-4549,-1)">
        <g id="strobe" transform="matrix(1,0,0,1,4549.2,1.96441)">
            <rect x="0" y="0" width="1080" height="1080" style="fill:none;"/>
            <g transform="matrix(1.32705,0,0,1.30938,-6232.6,-87.6391)">
                <path d="M5502.36,244.9C5506.81,244.9 5510.41,248.551 5510.41,253.056L5510.41,705.628C5510.41,710.132 5506.81,713.784 5502.36,713.784L4704.62,713.784C4700.18,713.784 4696.57,710.132 4696.57,705.628L4696.57,253.056C4696.57,248.551 4700.18,244.9 4704.62,244.9L5502.36,244.9ZM5469.02,283.324L4737.97,283.324L4737.97,675.36L5469.02,675.36L5469.02,283.324Z"/>
            </g>
            <g transform="matrix(1.30938,0,0,1.30938,-177.296,-168.794)">
                <g transform="matrix(1.09909,0,0,1.09909,-5018.29,-8.59313)">
                    <rect x="4733.07" y="328.664" width="24.99" height="24.99"/>
                </g>
                <g transform="matrix(1.09909,0,0,1.09909,-4982.53,-8.59313)">
                    <rect x="4733.07" y="328.664" width="24.99" height="24.99"/>
                </g>
                <g transform="matrix(1.09909,0,0,1.09909,-4947.54,-8.59313)">
                    <rect x="4733.07" y="328.664" width="24.99" height="24.99"/>
                </g>
                <g transform="matrix(1.09909,0,0,1.09909,-4912.55,-8.59313)">
                    <rect x="4733.07" y="328.664" width="24.99" height="24.99"/>
                </g>
                <g transform="matrix(1.09909,0,0,1.09909,-4877.56,-8.59313)">
                    <rect x="4733.07" y="328.664" width="24.99" height="24.99"/>
                </g>
                <g transform="matrix(1.09909,0,0,1.09909,-4842.57,-8.59313)">
                    <rect x="4733.07" y="328.664" width="24.99" height="24.99"/>
                </g>
                <g transform="matrix(1.09909,0,0,1.09909,-4807.58,-8.59313)">
                    <rect x="4733.07" y="328.664" width="24.99" height="24.99"/>
                </g>
                <g transform="matrix(1.09909,0,0,1.09909,-4772.59,-8.59313)">
                    <rect x="4733.07" y="328.664" width="24.99" height="24.99"/>
                </g>
                <g transform="matrix(1.09909,0,0,1.09909,-4737.6,-8.59313)">
                    <rect x="4733.07" y="328.664" width="24.99" height="24.99"/>
                </g>
                <g transform="matrix(1.09909,0,0,1.09909,-4702.61,-8.59313)">
                    <rect x="4733.07" y="328.664" width="24.99" height="24.99"/>
                </g>
                <g transform="matrix(1.09909,0,0,1.09909,-4667.62,-8.59313)">
                    <rect x="4733.07" y="328.664" width="24.99" height="24.99"/>
                </g>
                <g transform="matrix(1.09909,0,0,1.09909,-4632.63,-8.59313)">
                    <rect x="4733.07" y="328.664" width="24.99" height="24.99"/>
                </g>
                <g transform="matrix(1.09909,0,0,1.09909,-4597.65,-8.59313)">
                    <rect x="4733.07" y="328.664" width="24.99" height="24.99"/>
                </g>
                <g transform="matrix(1.09909,0,0,1.09909,-4562.66,-8.59313)">
                    <rect x="4733.07" y="328.664" width="24.99" height="24.99"/>
                </g>
                <g transform="matrix(1.09909,0,0,1.09909,-4527.67,-8.59313)">
                    <rect x="4733.07" y="328.664" width="24.99" height="24.99"/>
                </g>
                <g transform="matrix(1.09909,0,0,1.09909,-4492.68,-8.59313)">
                    <rect x="4733.07" y="328.664" width="24.99" height="24.99"/>
                </g>
                <g transform="matrix(1.09909,0,0,1.09909,-4457.69,-8.59313)">
                    <rect x="4733.07" y="328.664" width="24.99" height="24.99"/>
                </g>
                <g transform="matrix(1.09909,0,0,1.09909,-4422.7,-8.59313)">
                    <rect x="4733.07" y="328.664" width="24.99" height="24.99"/>
                </g>
                <g transform="matrix(1.09909,0,0,1.09909,-4387.71,-8.59313)">
                    <rect x="4733.07" y="328.664" width="24.99" height="24.99"/>
                </g>
                <g transform="matrix(1.09909,0,0,1.09909,-4352.72,-8.59313)">
                    <rect x="4733.07" y="328.664" width="24.99" height="24.99"/>
                </g>
                <g transform="matrix(1.09909,0,0,1.09909,-4317.73,-8.59313)">
                    <rect x="4733.07" y="328.664" width="24.99" height="24.99"/>
                </g>
                <g transform="matrix(1.09909,0,0,1.09909,-5017.52,26.3967)">
                    <rect x="4733.07" y="328.664" width="24.99" height="24.99"/>
                </g>
                <g transform="matrix(1.09909,0,0,1.09909,-4982.53,26.3967)">
                    <rect x="4733.07" y="328.664" width="24.99" height="24.99"/>
                </g>
                <g transform="matrix(1.09909,0,0,1.09909,-4947.54,26.3967)">
                    <rect x="4733.07" y="328.664" width="24.99" height="24.99"/>
                </g>
                <g transform="matrix(1.09909,0,0,1.09909,-4912.55,26.3967)">
                    <rect x="4733.07" y="328.664" width="24.99" height="24.99"/>
                </g>
                <g transform="matrix(1.09909,0,0,1.09909,-4877.56,26.3967)">
                    <rect x="4733.07" y="328.664" width="24.99" height="24.99"/>
                </g>
                <g transform="matrix(1.09909,0,0,1.09909,-4842.57,26.3967)">
                    <rect x="4733.07" y="328.664" width="24.99" height="24.99"/>
                </g>
                <g transform="matrix(1.09909,0,0,1.09909,-4807.58,26.3967)">
                    <rect x="4733.07" y="328.664" width="24.99" height="24.99"/>
                </g>
                <g transform="matrix(1.09909,0,0,1.09909,-4772.59,26.3967)">
                    <rect x="4733.07" y="328.664" width="24.99" height="24.99"/>
                </g>
                <g transform="matrix(1.09909,0,0,1.09909,-4737.6,26.3967)">
                    <rect x="4733.07" y="328.664" width="24.99" height="24.99"/>
                </g>
                <g transform="matrix(1.09909,0,0,1.09909,-4702.61,26.3967)">
                    <rect x="4733.07" y="328.664" width="24.99" height="24.99"/>
                </g>
                <g transform="matrix(1.09909,0,0,1.09909,-4667.62,26.3967)">
                    <rect x="4733.07" y="328.664" width="24.99" height="24.99"/>
                </g>
                <g transform="matrix(1.09909,0,0,1.09909,-4632.63,26.3967)">
                    <rect x="4733.07" y="328.664" width="24.99" height="24.99"/>
                </g>
                <g transform="matrix(1.09909,0,0,1.09909,-4597.65,26.3967)">
                    <rect x="4733.07" y="328.664" width="24.99" height="24.99"/>
                </g>
                <g transform="matrix(1.09909,0,0,1.09909,-4562.66,26.3967)">
                    <rect x="4733.07" y="328.664" width="24.99" height="24.99"/>
                </g>
                <g transform="matrix(1.09909,0,0,1.09909,-4527.67,26.3967)">
                    <rect x="4733.07" y="328.664" width="24.99" height="24.99"/>
                </g>
                <g transform="matrix(1.09909,0,0,1.09909,-4492.68,26.3967)">
                    <rect x="4733.07" y="328.664" width="24.99" height="24.99"/>
                </g>
                <g transform="matrix(1.09909,0,0,1.09909,-4457.69,26.3967)">
                    <rect x="4733.07" y="328.664" width="24.99" height="24.99"/>
                </g>
                <g transform="matrix(1.09909,0,0,1.09909,-4422.7,26.3967)">
                    <rect x="4733.07" y="328.664" width="24.99" height="24.99"/>
                </g>
                <g transform="matrix(1.09909,0,0,1.09909,-4387.71,26.3967)">
                    <rect x="4733.07" y="328.664" width="24.99" height="24.99"/>
                </g>
                <g transform="matrix(1.09909,0,0,1.09909,-4352.72,26.3967)">
                    <rect x="4733.07" y="328.664" width="24.99" height="24.99"/>
                </g>
                <g transform="matrix(1.09909,0,0,1.09909,-4317.73,26.3967)">
                    <rect x="4733.07" y="328.664" width="24.99" height="24.99"/>
                </g>
                <g transform="matrix(1.09909,0,0,1.09909,-5017.52,61.3865)">
                    <rect x="4733.07" y="328.664" width="24.99" height="24.99"/>
                </g>
                <g transform="matrix(1.09909,0,0,1.09909,-4982.53,61.3865)">
                    <rect x="4733.07" y="328.664" width="24.99" height="24.99"/>
                </g>
                <g transform="matrix(1.09909,0,0,1.09909,-4947.54,61.3865)">
                    <rect x="4733.07" y="328.664" width="24.99" height="24.99"/>
                </g>
                <g transform="matrix(1.09909,0,0,1.09909,-4912.55,61.3865)">
                    <rect x="4733.07" y="328.664" width="24.99" height="24.99"/>
                </g>
                <g transform="matrix(1.09909,0,0,1.09909,-4877.56,61.3865)">
                    <rect x="4733.07" y="328.664" width="24.99" height="24.99"/>
                </g>
                <g transform="matrix(1.09909,0,0,1.09909,-4842.57,61.3865)">
                    <rect x="4733.07" y="328.664" width="24.99" height="24.99"/>
                </g>
                <g transform="matrix(1.09909,0,0,1.09909,-4807.58,61.3865)">
                    <rect x="4733.07" y="328.664" width="24.99" height="24.99"/>
                </g>
                <g transform="matrix(1.09909,0,0,1.09909,-4772.59,61.3865)">
                    <rect x="4733.07" y="328.664" width="24.99" height="24.99"/>
                </g>
                <g transform="matrix(1.09909,0,0,1.09909,-4737.6,61.3865)">
                    <rect x="4733.07" y="328.664" width="24.99" height="24.99"/>
                </g>
                <g transform="matrix(1.09909,0,0,1.09909,-4702.61,61.3865)">
                    <rect x="4733.07" y="328.664" width="24.99" height="24.99"/>
                </g>
                <g transform="matrix(1.09909,0,0,1.09909,-4667.62,61.3865)">
                    <rect x="4733.07" y="328.664" width="24.99" height="24.99"/>
                </g>
                <g transform="matrix(1.09909,0,0,1.09909,-4632.63,61.3865)">
                    <rect x="4733.07" y="328.664" width="24.99" height="24.99"/>
                </g>
                <g transform="matrix(1.09909,0,0,1.09909,-4597.65,61.3865)">
                    <rect x="4733.07" y="328.664" width="24.99" height="24.99"/>
                </g>
                <g transform="matrix(1.09909,0,0,1.09909,-4562.66,61.3865)">
                    <rect x="4733.07" y="328.664" width="24.99" height="24.99"/>
                </g>
                <g transform="matrix(1.09909,0,0,1.09909,-4527.67,61.3865)">
                    <rect x="4733.07" y="328.664" width="24.99" height="24.99"/>
                </g>
                <g transform="matrix(1.09909,0,0,1.09909,-4492.68,61.3865)">
                    <rect x="4733.07" y="328.664" width="24.99" height="24.99"/>
                </g>
                <g transform="matrix(1.09909,0,0,1.09909,-4457.69,61.3865)">
                    <rect x="4733.07" y="328.664" width="24.99" height="24.99"/>
                </g>
                <g transform="matrix(1.09909,0,0,1.09909,-4422.7,61.3865)">
                    <rect x="4733.07" y="328.664" width="24.99" height="24.99"/>
                </g>
                <g transform="matrix(1.09909,0,0,1.09909,-4387.71,61.3865)">
                    <rect x="4733.07" y="328.664" width="24.99" height="24.99"/>
                </g>
                <g transform="matrix(1.09909,0,0,1.09909,-4352.72,61.3865)">
                    <rect x="4733.07" y="328.664" width="24.99" height="24.99"/>
                </g>
                <g transform="matrix(1.09909,0,0,1.09909,-4317.73,61.3865)">
                    <rect x="4733.07" y="328.664" width="24.99" height="24.99"/>
                </g>
                <g transform="matrix(1.09909,0,0,1.09909,-5017.52,96.3764)">
                    <rect x="4733.07" y="328.664" width="24.99" height="24.99"/>
                </g>
                <g transform="matrix(1.09909,0,0,1.09909,-4982.53,96.3764)">
                    <rect x="4733.07" y="328.664" width="24.99" height="24.99"/>
                </g>
                <g transform="matrix(1.09909,0,0,1.09909,-4947.54,96.3764)">
                    <rect x="4733.07" y="328.664" width="24.99" height="24.99"/>
                </g>
                <g transform="matrix(1.09909,0,0,1.09909,-4912.55,96.3764)">
                    <rect x="4733.07" y="328.664" width="24.99" height="24.99"/>
                </g>
                <g transform="matrix(1.09909,0,0,1.09909,-4877.56,96.3764)">
                    <rect x="4733.07" y="328.664" width="24.99" height="24.99"/>
                </g>
                <g transform="matrix(1.09909,0,0,1.09909,-4842.57,96.3764)">
                    <rect x="4733.07" y="328.664" width="24.99" height="24.99"/>
                </g>
                <g transform="matrix(1.09909,0,0,1.09909,-4807.58,96.3764)">
                    <rect x="4733.07" y="328.664" width="24.99" height="24.99"/>
                </g>
                <g transform="matrix(1.09909,0,0,1.09909,-4772.59,96.3764)">
                    <rect x="4733.07" y="328.664" width="24.99" height="24.99"/>
                </g>
                <g transform="matrix(1.09909,0,0,1.09909,-4737.6,96.3764)">
                    <rect x="4733.07" y="328.664" width="24.99" height="24.99"/>
                </g>
                <g transform="matrix(1.09909,0,0,1.09909,-4702.61,96.3764)">
                    <rect x="4733.07" y="328.664" width="24.99" height="24.99"/>
                </g>
                <g transform="matrix(1.09909,0,0,1.09909,-4667.62,96.3764)">
                    <rect x="4733.07" y="328.664" width="24.99" height="24.99"/>
                </g>
                <g transform="matrix(1.09909,0,0,1.09909,-4632.63,96.3764)">
                    <rect x="4733.07" y="328.664" width="24.99" height="24.99"/>
                </g>
                <g transform="matrix(1.09909,0,0,1.09909,-4597.65,96.3764)">
                    <rect x="4733.07" y="328.664" width="24.99" height="24.99"/>
                </g>
                <g transform="matrix(1.09909,0,0,1.09909,-4562.66,96.3764)">
                    <rect x="4733.07" y="328.664" width="24.99" height="24.99"/>
                </g>
                <g transform="matrix(1.09909,0,0,1.09909,-4527.67,96.3764)">
                    <rect x="4733.07" y="328.664" width="24.99" height="24.99"/>
                </g>
                <g transform="matrix(1.09909,0,0,1.09909,-4492.68,96.3764)">
                    <rect x="4733.07" y="328.664" width="24.99" height="24.99"/>
                </g>
                <g transform="matrix(1.09909,0,0,1.09909,-4457.69,96.3764)">
                    <rect x="4733.07" y="328.664" width="24.99" height="24.99"/>
                </g>
                <g transform="matrix(1.09909,0,0,1.09909,-4422.7,96.3764)">
                    <rect x="4733.07" y="328.664" width="24.99" height="24.99"/>
                </g>
                <g transform="matrix(1.09909,0,0,1.09909,-4387.71,96.3764)">
                    <rect x="4733.07" y="328.664" width="24.99" height="24.99"/>
                </g>
                <g transform="matrix(1.09909,0,0,1.09909,-4352.72,96.3764)">
                    <rect x="4733.07" y="328.664" width="24.99" height="24.99"/>
                </g>
                <g transform="matrix(1.09909,0,0,1.09909,-4317.73,96.3764)">
                    <rect x="4733.07" y="328.664" width="24.99" height="24.99"/>
                </g>
                <g transform="matrix(1.09909,0,0,1.09909,-5017.52,131.366)">
                    <rect x="4733.07" y="328.664" width="24.99" height="24.99"/>
                </g>
                <g transform="matrix(1.09909,0,0,1.09909,-4982.53,131.366)">
                    <rect x="4733.07" y="328.664" width="24.99" height="24.99"/>
                </g>
                <g transform="matrix(1.09909,0,0,1.09909,-4947.54,131.366)">
                    <rect x="4733.07" y="328.664" width="24.99" height="24.99"/>
                </g>
                <g transform="matrix(1.09909,0,0,1.09909,-4912.55,131.366)">
                    <rect x="4733.07" y="328.664" width="24.99" height="24.99"/>
                </g>
                <g transform="matrix(1.09909,0,0,1.09909,-4877.56,131.366)">
                    <rect x="4733.07" y="328.664" width="24.99" height="24.99"/>
                </g>
                <g transform="matrix(1.09909,0,0,1.09909,-4842.57,131.366)">
                    <rect x="4733.07" y="328.664" width="24.99" height="24.99"/>
                </g>
                <g transform="matrix(1.09909,0,0,1.09909,-4807.58,131.366)">
                    <rect x="4733.07" y="328.664" width="24.99" height="24.99"/>
                </g>
                <g transform="matrix(1.09909,0,0,1.09909,-4772.59,131.366)">
                    <rect x="4733.07" y="328.664" width="24.99" height="24.99"/>
                </g>
                <g transform="matrix(1.09909,0,0,1.09909,-4737.6,131.366)">
                    <rect x="4733.07" y="328.664" width="24.99" height="24.99"/>
                </g>
                <g transform="matrix(1.09909,0,0,1.09909,-4702.61,131.366)">
                    <rect x="4733.07" y="328.664" width="24.99" height="24.99"/>
                </g>
                <g transform="matrix(1.09909,0,0,1.09909,-4667.62,131.366)">
                    <rect x="4733.07" y="328.664" width="24.99" height="24.99"/>
                </g>
                <g transform="matrix(1.09909,0,0,1.09909,-4632.63,131.366)">
                    <rect x="4733.07" y="328.664" width="24.99" height="24.99"/>
                </g>
                <g transform="matrix(1.09909,0,0,1.09909,-4597.65,131.366)">
                    <rect x="4733.07" y="328.664" width="24.99" height="24.99"/>
                </g>
                <g transform="matrix(1.09909,0,0,1.09909,-4562.66,131.366)">
                    <rect x="4733.07" y="328.664" width="24.99" height="24.99"/>
                </g>
                <g transform="matrix(1.09909,0,0,1.09909,-4527.67,131.366)">
                    <rect x="4733.07" y="328.664" width="24.99" height="24.99"/>
                </g>
                <g transform="matrix(1.09909,0,0,1.09909,-4492.68,131.366)">
                    <rect x="4733.07" y="328.664" width="24.99" height="24.99"/>
                </g>
                <g transform="matrix(1.09909,0,0,1.09909,-4457.69,131.366)">
                    <rect x="4733.07" y="328.664" width="24.99" height="24.99"/>
                </g>
                <g transform="matrix(1.09909,0,0,1.09909,-4422.7,131.366)">
                    <rect x="4733.07" y="328.664" width="24.99" height="24.99"/>
                </g>
                <g transform="matrix(1.09909,0,0,1.09909,-4387.71,131.366)">
                    <rect x="4733.07" y="328.664" width="24.99" height="24.99"/>
                </g>
                <g transform="matrix(1.09909,0,0,1.09909,-4352.72,131.366)">
                    <rect x="4733.07" y="328.664" width="24.99" height="24.99"/>
                </g>
                <g transform="matrix(1.09909,0,0,1.09909,-4317.73,131.366)">
                    <rect x="4733.07" y="328.664" width="24.99" height="24.99"/>
                </g>
                <g transform="matrix(1.09909,0,0,1.09909,-5017.52,166.356)">
                    <rect x="4733.07" y="328.664" width="24.99" height="24.99"/>
                </g>
                <g transform="matrix(1.09909,0,0,1.09909,-4982.53,166.356)">
                    <rect x="4733.07" y="328.664" width="24.99" height="24.99"/>
                </g>
                <g transform="matrix(1.09909,0,0,1.09909,-4947.54,166.356)">
                    <rect x="4733.07" y="328.664" width="24.99" height="24.99"/>
                </g>
                <g transform="matrix(1.09909,0,0,1.09909,-4912.55,166.356)">
                    <rect x="4733.07" y="328.664" width="24.99" height="24.99"/>
                </g>
                <g transform="matrix(1.09909,0,0,1.09909,-4877.56,166.356)">
                    <rect x="4733.07" y="328.664" width="24.99" height="24.99"/>
                </g>
                <g transform="matrix(1.09909,0,0,1.09909,-4842.57,166.356)">
                    <rect x="4733.07" y="328.664" width="24.99" height="24.99"/>
                </g>
                <g transform="matrix(1.09909,0,0,1.09909,-4807.58,166.356)">
                    <rect x="4733.07" y="328.664" width="24.99" height="24.99"/>
                </g>
                <g transform="matrix(1.09909,0,0,1.09909,-4772.59,166.356)">
                    <rect x="4733.07" y="328.664" width="24.99" height="24.99"/>
                </g>
                <g transform="matrix(1.09909,0,0,1.09909,-4737.6,166.356)">
                    <rect x="4733.07" y="328.664" width="24.99" height="24.99"/>
                </g>
                <g transform="matrix(1.09909,0,0,1.09909,-4702.61,166.356)">
                    <rect x="4733.07" y="328.664" width="24.99" height="24.99"/>
                </g>
                <g transform="matrix(1.09909,0,0,1.09909,-4667.62,166.356)">
                    <rect x="4733.07" y="328.664" width="24.99" height="24.99"/>
                </g>
                <g transform="matrix(1.09909,0,0,1.09909,-4632.63,166.356)">
                    <rect x="4733.07" y="328.664" width="24.99" height="24.99"/>
                </g>
                <g transform="matrix(1.09909,0,0,1.09909,-4597.65,166.356)">
                    <rect x="4733.07" y="328.664" width="24.99" height="24.99"/>
                </g>
                <g transform="matrix(1.09909,0,0,1.09909,-4562.66,166.356)">
                    <rect x="4733.07" y="328.664" width="24.99" height="24.99"/>
                </g>
                <g transform="matrix(1.09909,0,0,1.09909,-4527.67,166.356)">
                    <rect x="4733.07" y="328.664" width="24.99" height="24.99"/>
                </g>
                <g transform="matrix(1.09909,0,0,1.09909,-4492.68,166.356)">
                    <rect x="4733.07" y="328.664" width="24.99" height="24.99"/>
                </g>
                <g transform="matrix(1.09909,0,0,1.09909,-4457.69,166.356)">
                    <rect x="4733.07" y="328.664" width="24.99" height="24.99"/>
                </g>
                <g transform="matrix(1.09909,0,0,1.09909,-4422.7,166.356)">
                    <rect x="4733.07" y="328.664" width="24.99" height="24.99"/>
                </g>
                <g transform="matrix(1.09909,0,0,1.09909,-4387.71,166.356)">
                    <rect x="4733.07" y="328.664" width="24.99" height="24.99"/>
                </g>
                <g transform="matrix(1.09909,0,0,1.09909,-4352.72,166.356)">
                    <rect x="4733.07" y="328.664" width="24.99" height="24.99"/>
                </g>
                <g transform="matrix(1.09909,0,0,1.09909,-4317.73,166.356)">
                    <rect x="4733.07" y="328.664" width="24.99" height="24.99"/>
                </g>
                <g transform="matrix(1.09909,0,0,1.09909,-5017.52,201.346)">
                    <rect x="4733.07" y="328.664" width="24.99" height="24.99"/>
                </g>
                <g transform="matrix(1.09909,0,0,1.09909,-4982.53,201.346)">
                    <rect x="4733.07" y="328.664" width="24.99" height="24.99"/>
                </g>
                <g transform="matrix(1.09909,0,0,1.09909,-4947.54,201.346)">
                    <rect x="4733.07" y="328.664" width="24.99" height="24.99"/>
                </g>
                <g transform="matrix(1.09909,0,0,1.09909,-4912.55,201.346)">
                    <rect x="4733.07" y="328.664" width="24.99" height="24.99"/>
                </g>
                <g transform="matrix(1.09909,0,0,1.09909,-4877.56,201.346)">
                    <rect x="4733.07" y="328.664" width="24.99" height="24.99"/>
                </g>
                <g transform="matrix(1.09909,0,0,1.09909,-4842.57,201.346)">
                    <rect x="4733.07" y="328.664" width="24.99" height="24.99"/>
                </g>
                <g transform="matrix(1.09909,0,0,1.09909,-4807.58,201.346)">
                    <rect x="4733.07" y="328.664" width="24.99" height="24.99"/>
                </g>
                <g transform="matrix(1.09909,0,0,1.09909,-4772.59,201.346)">
                    <rect x="4733.07" y="328.664" width="24.99" height="24.99"/>
                </g>
                <g transform="matrix(1.09909,0,0,1.09909,-4737.6,201.346)">
                    <rect x="4733.07" y="328.664" width="24.99" height="24.99"/>
                </g>
                <g transform="matrix(1.09909,0,0,1.09909,-4702.61,201.346)">
                    <rect x="4733.07" y="328.664" width="24.99" height="24.99"/>
                </g>
                <g transform="matrix(1.09909,0,0,1.09909,-4667.62,201.346)">
                    <rect x="4733.07" y="328.664" width="24.99" height="24.99"/>
                </g>
                <g transform="matrix(1.09909,0,0,1.09909,-4632.63,201.346)">
                    <rect x="4733.07" y="328.664" width="24.99" height="24.99"/>
                </g>
                <g transform="matrix(1.09909,0,0,1.09909,-4597.65,201.346)">
                    <rect x="4733.07" y="328.664" width="24.99" height="24.99"/>
                </g>
                <g transform="matrix(1.09909,0,0,1.09909,-4562.66,201.346)">
                    <rect x="4733.07" y="328.664" width="24.99" height="24.99"/>
                </g>
                <g transform="matrix(1.09909,0,0,1.09909,-4527.67,201.346)">
                    <rect x="4733.07" y="328.664" width="24.99" height="24.99"/>
                </g>
                <g transform="matrix(1.09909,0,0,1.09909,-4492.68,201.346)">
                    <rect x="4733.07" y="328.664" width="24.99" height="24.99"/>
                </g>
                <g transform="matrix(1.09909,0,0,1.09909,-4457.69,201.346)">
                    <rect x="4733.07" y="328.664" width="24.99" height="24.99"/>
                </g>
                <g transform="matrix(1.09909,0,0,1.09909,-4422.7,201.346)">
                    <rect x="4733.07" y="328.664" width="24.99" height="24.99"/>
                </g>
                <g transform="matrix(1.09909,0,0,1.09909,-4387.71,201.346)">
                    <rect x="4733.07" y="328.664" width="24.99" height="24.99"/>
                </g>
                <g transform="matrix(1.09909,0,0,1.09909,-4352.72,201.346)">
                    <rect x="4733.07" y="328.664" width="24.99" height="24.99"/>
                </g>
                <g transform="matrix(1.09909,0,0,1.09909,-4317.73,201.346)">
                    <rect x="4733.07" y="328.664" width="24.99" height="24.99"/>
                </g>
                <g transform="matrix(1.09909,0,0,1.09909,-5017.52,236.336)">
                    <rect x="4733.07" y="328.664" width="24.99" height="24.99"/>
                </g>
                <g transform="matrix(1.09909,0,0,1.09909,-4982.53,236.336)">
                    <rect x="4733.07" y="328.664" width="24.99" height="24.99"/>
                </g>
                <g transform="matrix(1.09909,0,0,1.09909,-4947.54,236.336)">
                    <rect x="4733.07" y="328.664" width="24.99" height="24.99"/>
                </g>
                <g transform="matrix(1.09909,0,0,1.09909,-4912.55,236.336)">
                    <rect x="4733.07" y="328.664" width="24.99" height="24.99"/>
                </g>
                <g transform="matrix(1.09909,0,0,1.09909,-4877.56,236.336)">
                    <rect x="4733.07" y="328.664" width="24.99" height="24.99"/>
                </g>
                <g transform="matrix(1.09909,0,0,1.09909,-4842.57,236.336)">
                    <rect x="4733.07" y="328.664" width="24.99" height="24.99"/>
                </g>
                <g transform="matrix(1.09909,0,0,1.09909,-4807.58,236.336)">
                    <rect x="4733.07" y="328.664" width="24.99" height="24.99"/>
                </g>
                <g transform="matrix(1.09909,0,0,1.09909,-4772.59,236.336)">
                    <rect x="4733.07" y="328.664" width="24.99" height="24.99"/>
                </g>
                <g transform="matrix(1.09909,0,0,1.09909,-4737.6,236.336)">
                    <rect x="4733.07" y="328.664" width="24.99" height="24.99"/>
                </g>
                <g transform="matrix(1.09909,0,0,1.09909,-4702.61,236.336)">
                    <rect x="4733.07" y="328.664" width="24.99" height="24.99"/>
                </g>
                <g transform="matrix(1.09909,0,0,1.09909,-4667.62,236.336)">
                    <rect x="4733.07" y="328.664" width="24.99" height="24.99"/>
                </g>
                <g transform="matrix(1.09909,0,0,1.09909,-4632.63,236.336)">
                    <rect x="4733.07" y="328.664" width="24.99" height="24.99"/>
                </g>
                <g transform="matrix(1.09909,0,0,1.09909,-4597.65,236.336)">
                    <rect x="4733.07" y="328.664" width="24.99" height="24.99"/>
                </g>
                <g transform="matrix(1.09909,0,0,1.09909,-4562.66,236.336)">
                    <rect x="4733.07" y="328.664" width="24.99" height="24.99"/>
                </g>
                <g transform="matrix(1.09909,0,0,1.09909,-4527.67,236.336)">
                    <rect x="4733.07" y="328.664" width="24.99" height="24.99"/>
                </g>
                <g transform="matrix(1.09909,0,0,1.09909,-4492.68,236.336)">
                    <rect x="4733.07" y="328.664" width="24.99" height="24.99"/>
                </g>
                <g transform="matrix(1.09909,0,0,1.09909,-4457.69,236.336)">
                    <rect x="4733.07" y="328.664" width="24.99" height="24.99"/>
                </g>
                <g transform="matrix(1.09909,0,0,1.09909,-4422.7,236.336)">
                    <rect x="4733.07" y="328.664" width="24.99" height="24.99"/>
                </g>
                <g transform="matrix(1.09909,0,0,1.09909,-4387.71,236.336)">
                    <rect x="4733.07" y="328.664" width="24.99" height="24.99"/>
                </g>
                <g transform="matrix(1.09909,0,0,1.09909,-4352.72,236.336)">
                    <rect x="4733.07" y="328.664" width="24.99" height="24.99"/>
                </g>
                <g transform="matrix(1.09909,0,0,1.09909,-4317.73,236.336)">
                    <rect x="4733.07" y="328.664" width="24.99" height="24.99"/>
                </g>
                <g transform="matrix(1.09909,0,0,1.09909,-5017.52,271.326)">
                    <rect x="4733.07" y="328.664" width="24.99" height="24.99"/>
                </g>
                <g transform="matrix(1.09909,0,0,1.09909,-4982.53,271.326)">
                    <rect x="4733.07" y="328.664" width="24.99" height="24.99"/>
                </g>
                <g transform="matrix(1.09909,0,0,1.09909,-4947.54,271.326)">
                    <rect x="4733.07" y="328.664" width="24.99" height="24.99"/>
                </g>
                <g transform="matrix(1.09909,0,0,1.09909,-4912.55,271.326)">
                    <rect x="4733.07" y="328.664" width="24.99" height="24.99"/>
                </g>
                <g transform="matrix(1.09909,0,0,1.09909,-4877.56,271.326)">
                    <rect x="4733.07" y="328.664" width="24.99" height="24.99"/>
                </g>
                <g transform="matrix(1.09909,0,0,1.09909,-4842.57,271.326)">
                    <rect x="4733.07" y="328.664" width="24.99" height="24.99"/>
                </g>
                <g transform="matrix(1.09909,0,0,1.09909,-4807.58,271.326)">
                    <rect x="4733.07" y="328.664" width="24.99" height="24.99"/>
                </g>
                <g transform="matrix(1.09909,0,0,1.09909,-4772.59,271.326)">
                    <rect x="4733.07" y="328.664" width="24.99" height="24.99"/>
                </g>
                <g transform="matrix(1.09909,0,0,1.09909,-4737.6,271.326)">
                    <rect x="4733.07" y="328.664" width="24.99" height="24.99"/>
                </g>
                <g transform="matrix(1.09909,0,0,1.09909,-4702.61,271.326)">
                    <rect x="4733.07" y="328.664" width="24.99" height="24.99"/>
                </g>
                <g transform="matrix(1.09909,0,0,1.09909,-4667.62,271.326)">
                    <rect x="4733.07" y="328.664" width="24.99" height="24.99"/>
                </g>
                <g transform="matrix(1.09909,0,0,1.09909,-4632.63,271.326)">
                    <rect x="4733.07" y="328.664" width="24.99" height="24.99"/>
                </g>
                <g transform="matrix(1.09909,0,0,1.09909,-4597.65,271.326)">
                    <rect x="4733.07" y="328.664" width="24.99" height="24.99"/>
                </g>
                <g transform="matrix(1.09909,0,0,1.09909,-4562.66,271.326)">
                    <rect x="4733.07" y="328.664" width="24.99" height="24.99"/>
                </g>
                <g transform="matrix(1.09909,0,0,1.09909,-4527.67,271.326)">
                    <rect x="4733.07" y="328.664" width="24.99" height="24.99"/>
                </g>
                <g transform="matrix(1.09909,0,0,1.09909,-4492.68,271.326)">
                    <rect x="4733.07" y="328.664" width="24.99" height="24.99"/>
                </g>
                <g transform="matrix(1.09909,0,0,1.09909,-4457.69,271.326)">
                    <rect x="4733.07" y="328.664" width="24.99" height="24.99"/>
                </g>
                <g transform="matrix(1.09909,0,0,1.09909,-4422.7,271.326)">
                    <rect x="4733.07" y="328.664" width="24.99" height="24.99"/>
                </g>
                <g transform="matrix(1.09909,0,0,1.09909,-4387.71,271.326)">
                    <rect x="4733.07" y="328.664" width="24.99" height="24.99"/>
                </g>
                <g transform="matrix(1.09909,0,0,1.09909,-4352.72,271.326)">
                    <rect x="4733.07" y="328.664" width="24.99" height="24.99"/>
                </g>
                <g transform="matrix(1.09909,0,0,1.09909,-4317.73,271.326)">
                    <rect x="4733.07" y="328.664" width="24.99" height="24.99"/>
                </g>
                <g transform="matrix(1.09909,0,0,1.09909,-5017.52,306.315)">
                    <rect x="4733.07" y="328.664" width="24.99" height="24.99"/>
                </g>
                <g transform="matrix(1.09909,0,0,1.09909,-4982.53,306.315)">
                    <rect x="4733.07" y="328.664" width="24.99" height="24.99"/>
                </g>
                <g transform="matrix(1.09909,0,0,1.09909,-4947.54,306.315)">
                    <rect x="4733.07" y="328.664" width="24.99" height="24.99"/>
                </g>
                <g transform="matrix(1.09909,0,0,1.09909,-4912.55,306.315)">
                    <rect x="4733.07" y="328.664" width="24.99" height="24.99"/>
                </g>
                <g transform="matrix(1.09909,0,0,1.09909,-4877.56,306.315)">
                    <rect x="4733.07" y="328.664" width="24.99" height="24.99"/>
                </g>
                <g transform="matrix(1.09909,0,0,1.09909,-4842.57,306.315)">
                    <rect x="4733.07" y="328.664" width="24.99" height="24.99"/>
                </g>
                <g transform="matrix(1.09909,0,0,1.09909,-4807.58,306.315)">
                    <rect x="4733.07" y="328.664" width="24.99" height="24.99"/>
                </g>
                <g transform="matrix(1.09909,0,0,1.09909,-4772.59,306.315)">
                    <rect x="4733.07" y="328.664" width="24.99" height="24.99"/>
                </g>
                <g transform="matrix(1.09909,0,0,1.09909,-4737.6,306.315)">
                    <rect x="4733.07" y="328.664" width="24.99" height="24.99"/>
                </g>
                <g transform="matrix(1.09909,0,0,1.09909,-4702.61,306.315)">
                    <rect x="4733.07" y="328.664" width="24.99" height="24.99"/>
                </g>
                <g transform="matrix(1.09909,0,0,1.09909,-4667.62,306.315)">
                    <rect x="4733.07" y="328.664" width="24.99" height="24.99"/>
                </g>
                <g transform="matrix(1.09909,0,0,1.09909,-4632.63,306.315)">
                    <rect x="4733.07" y="328.664" width="24.99" height="24.99"/>
                </g>
                <g transform="matrix(1.09909,0,0,1.09909,-4597.65,306.315)">
                    <rect x="4733.07" y="328.664" width="24.99" height="24.99"/>
                </g>
                <g transform="matrix(1.09909,0,0,1.09909,-4562.66,306.315)">
                    <rect x="4733.07" y="328.664" width="24.99" height="24.99"/>
                </g>
                <g transform="matrix(1.09909,0,0,1.09909,-4527.67,306.315)">
                    <rect x="4733.07" y="328.664" width="24.99" height="24.99"/>
                </g>
                <g transform="matrix(1.09909,0,0,1.09909,-4492.68,306.315)">
                    <rect x="4733.07" y="328.664" width="24.99" height="24.99"/>
                </g>
                <g transform="matrix(1.09909,0,0,1.09909,-4457.69,306.315)">
                    <rect x="4733.07" y="328.664" width="24.99" height="24.99"/>
                </g>
                <g transform="matrix(1.09909,0,0,1.09909,-4422.7,306.315)">
                    <rect x="4733.07" y="328.664" width="24.99" height="24.99"/>
                </g>
                <g transform="matrix(1.09909,0,0,1.09909,-4387.71,306.315)">
                    <rect x="4733.07" y="328.664" width="24.99" height="24.99"/>
                </g>
                <g transform="matrix(1.09909,0,0,1.09909,-4352.72,306.315)">
                    <rect x="4733.07" y="328.664" width="24.99" height="24.99"/>
                </g>
                <g transform="matrix(1.09909,0,0,1.09909,-4317.73,306.315)">
                    <rect x="4733.07" y="328.664" width="24.99" height="24.99"/>
                </g>
                <g transform="matrix(1.09909,0,0,1.09909,-5017.52,341.305)">
                    <rect x="4733.07" y="328.664" width="24.99" height="24.99"/>
                </g>
                <g transform="matrix(1.09909,0,0,1.09909,-4982.53,341.305)">
                    <rect x="4733.07" y="328.664" width="24.99" height="24.99"/>
                </g>
                <g transform="matrix(1.09909,0,0,1.09909,-4947.54,341.305)">
                    <rect x="4733.07" y="328.664" width="24.99" height="24.99"/>
                </g>
                <g transform="matrix(1.09909,0,0,1.09909,-4912.55,341.305)">
                    <rect x="4733.07" y="328.664" width="24.99" height="24.99"/>
                </g>
                <g transform="matrix(1.09909,0,0,1.09909,-4877.56,341.305)">
                    <rect x="4733.07" y="328.664" width="24.99" height="24.99"/>
                </g>
                <g transform="matrix(1.09909,0,0,1.09909,-4842.57,341.305)">
                    <rect x="4733.07" y="328.664" width="24.99" height="24.99"/>
                </g>
                <g transform="matrix(1.09909,0,0,1.09909,-4807.58,341.305)">
                    <rect x="4733.07" y="328.664" width="24.99" height="24.99"/>
                </g>
                <g transform="matrix(1.09909,0,0,1.09909,-4772.59,341.305)">
                    <rect x="4733.07" y="328.664" width="24.99" height="24.99"/>
                </g>
                <g transform="matrix(1.09909,0,0,1.09909,-4737.6,341.305)">
                    <rect x="4733.07" y="328.664" width="24.99" height="24.99"/>
                </g>
                <g transform="matrix(1.09909,0,0,1.09909,-4702.61,341.305)">
                    <rect x="4733.07" y="328.664" width="24.99" height="24.99"/>
                </g>
                <g transform="matrix(1.09909,0,0,1.09909,-4667.62,341.305)">
                    <rect x="4733.07" y="328.664" width="24.99" height="24.99"/>
                </g>
                <g transform="matrix(1.09909,0,0,1.09909,-4632.63,341.305)">
                    <rect x="4733.07" y="328.664" width="24.99" height="24.99"/>
                </g>
                <g transform="matrix(1.09909,0,0,1.09909,-4597.65,341.305)">
                    <rect x="4733.07" y="328.664" width="24.99" height="24.99"/>
                </g>
                <g transform="matrix(1.09909,0,0,1.09909,-4562.66,341.305)">
                    <rect x="4733.07" y="328.664" width="24.99" height="24.99"/>
                </g>
                <g transform="matrix(1.09909,0,0,1.09909,-4527.67,341.305)">
                    <rect x="4733.07" y="328.664" width="24.99" height="24.99"/>
                </g>
                <g transform="matrix(1.09909,0,0,1.09909,-4492.68,341.305)">
                    <rect x="4733.07" y="328.664" width="24.99" height="24.99"/>
                </g>
                <g transform="matrix(1.09909,0,0,1.09909,-4457.69,341.305)">
                    <rect x="4733.07" y="328.664" width="24.99" height="24.99"/>
                </g>
                <g transform="matrix(1.09909,0,0,1.09909,-4422.7,341.305)">
                    <rect x="4733.07" y="328.664" width="24.99" height="24.99"/>
                </g>
                <g transform="matrix(1.09909,0,0,1.09909,-4387.71,341.305)">
                    <rect x="4733.07" y="328.664" width="24.99" height="24.99"/>
                </g>
                <g transform="matrix(1.09909,0,0,1.09909,-4352.72,341.305)">
                    <rect x="4733.07" y="328.664" width="24.99" height="24.99"/>
                </g>
                <g transform="matrix(1.09909,0,0,1.09909,-4317.73,341.305)">
                    <rect x="4733.07" y="328.664" width="24.99" height="24.99"/>
                </g>
            </g>
        </g>
    </g>
</svg>
