<svg viewBox="0 0 1024 886" xmlns="http://www.w3.org/2000/svg" xmlns:xlink="http://www.w3.org/1999/xlink"><clipPath id="a"><path d="m0 0h847v497h-847z"/></clipPath><filter id="b" filterUnits="userSpaceOnUse" height="42" width="95" x="41" y="100"><feOffset dx="2" dy="2"/><feGaussianBlur result="blur"/><feFlood flood-opacity=".161"/><feComposite in2="blur" operator="in" result="result1"/><feComposite in="SourceGraphic" in2="result1"/></filter><filter id="c" filterUnits="userSpaceOnUse" height="42" width="95" x="148" y="100"><feOffset dx="2" dy="2"/><feGaussianBlur result="blur-2"/><feFlood flood-opacity=".161"/><feComposite in2="blur-2" operator="in" result="result1"/><feComposite in="SourceGraphic" in2="result1"/></filter><filter id="d" filterUnits="userSpaceOnUse" height="42" width="95" x="255" y="100"><feOffset dx="2" dy="2"/><feGaussianBlur result="blur-3"/><feFlood flood-opacity=".161"/><feComposite in2="blur-3" operator="in" result="result1"/><feComposite in="SourceGraphic" in2="result1"/></filter><filter id="e" filterUnits="userSpaceOnUse" height="42" width="95" x="362" y="100"><feOffset dx="2" dy="2"/><feGaussianBlur result="blur-4"/><feFlood flood-opacity=".161"/><feComposite in2="blur-4" operator="in" result="result1"/><feComposite in="SourceGraphic" in2="result1"/></filter><filter id="f" filterUnits="userSpaceOnUse" height="42" width="95" x="469" y="100"><feOffset dx="2" dy="2"/><feGaussianBlur result="blur-5"/><feFlood flood-opacity=".161"/><feComposite in2="blur-5" operator="in" result="result1"/><feComposite in="SourceGraphic" in2="result1"/></filter><filter id="g" filterUnits="userSpaceOnUse" height="42" width="95" x="576" y="100"><feOffset dx="2" dy="2"/><feGaussianBlur result="blur-6"/><feFlood flood-opacity=".161"/><feComposite in2="blur-6" operator="in" result="result1"/><feComposite in="SourceGraphic" in2="result1"/></filter><filter id="h" filterUnits="userSpaceOnUse" height="42" width="95" x="683" y="100"><feOffset dx="2" dy="2"/><feGaussianBlur result="blur-7"/><feFlood flood-opacity=".161"/><feComposite in2="blur-7" operator="in" result="result1"/><feComposite in="SourceGraphic" in2="result1"/></filter><filter id="i" filterUnits="userSpaceOnUse" height="42" width="95" x="790" y="100"><feOffset dx="2" dy="2"/><feGaussianBlur result="blur-8"/><feFlood flood-opacity=".161"/><feComposite in2="blur-8" operator="in" result="result1"/><feComposite in="SourceGraphic" in2="result1"/></filter><filter id="j" filterUnits="userSpaceOnUse" height="42" width="95" x="41" y="157"><feOffset dx="2" dy="2"/><feGaussianBlur result="blur-9"/><feFlood flood-opacity=".161"/><feComposite in2="blur-9" operator="in" result="result1"/><feComposite in="SourceGraphic" in2="result1"/></filter><filter id="k" filterUnits="userSpaceOnUse" height="42" width="95" x="148" y="157"><feOffset dx="2" dy="2"/><feGaussianBlur result="blur-10"/><feFlood flood-opacity=".161"/><feComposite in2="blur-10" operator="in" result="result1"/><feComposite in="SourceGraphic" in2="result1"/></filter><filter id="l" filterUnits="userSpaceOnUse" height="42" width="95" x="255" y="157"><feOffset dx="2" dy="2"/><feGaussianBlur result="blur-11"/><feFlood flood-opacity=".161"/><feComposite in2="blur-11" operator="in" result="result1"/><feComposite in="SourceGraphic" in2="result1"/></filter><filter id="m" filterUnits="userSpaceOnUse" height="42" width="95" x="362" y="157"><feOffset dx="2" dy="2"/><feGaussianBlur result="blur-12"/><feFlood flood-opacity=".161"/><feComposite in2="blur-12" operator="in" result="result1"/><feComposite in="SourceGraphic" in2="result1"/></filter><filter id="n" filterUnits="userSpaceOnUse" height="42" width="95" x="469" y="157"><feOffset dx="2" dy="2"/><feGaussianBlur result="blur-13"/><feFlood flood-opacity=".161"/><feComposite in2="blur-13" operator="in" result="result1"/><feComposite in="SourceGraphic" in2="result1"/></filter><filter id="o" filterUnits="userSpaceOnUse" height="42" width="95" x="576" y="157"><feOffset dx="2" dy="2"/><feGaussianBlur result="blur-14"/><feFlood flood-opacity=".161"/><feComposite in2="blur-14" operator="in" result="result1"/><feComposite in="SourceGraphic" in2="result1"/></filter><filter id="p" filterUnits="userSpaceOnUse" height="42" width="95" x="683" y="157"><feOffset dx="2" dy="2"/><feGaussianBlur result="blur-15"/><feFlood flood-opacity=".161"/><feComposite in2="blur-15" operator="in" result="result1"/><feComposite in="SourceGraphic" in2="result1"/></filter><filter id="q" filterUnits="userSpaceOnUse" height="42" width="95" x="790" y="157"><feOffset dx="2" dy="2"/><feGaussianBlur result="blur-16"/><feFlood flood-opacity=".161"/><feComposite in2="blur-16" operator="in" result="result1"/><feComposite in="SourceGraphic" in2="result1"/></filter><filter id="r" filterUnits="userSpaceOnUse" height="42" width="95" x="41" y="214"><feOffset dx="2" dy="2"/><feGaussianBlur result="blur-17"/><feFlood flood-opacity=".161"/><feComposite in2="blur-17" operator="in" result="result1"/><feComposite in="SourceGraphic" in2="result1"/></filter><filter id="s" filterUnits="userSpaceOnUse" height="42" width="95" x="148" y="214"><feOffset dx="2" dy="2"/><feGaussianBlur result="blur-18"/><feFlood flood-opacity=".161"/><feComposite in2="blur-18" operator="in" result="result1"/><feComposite in="SourceGraphic" in2="result1"/></filter><filter id="t" filterUnits="userSpaceOnUse" height="42" width="95" x="255" y="214"><feOffset dx="2" dy="2"/><feGaussianBlur result="blur-19"/><feFlood flood-opacity=".161"/><feComposite in2="blur-19" operator="in" result="result1"/><feComposite in="SourceGraphic" in2="result1"/></filter><filter id="u" filterUnits="userSpaceOnUse" height="42" width="95" x="362" y="214"><feOffset dx="2" dy="2"/><feGaussianBlur result="blur-20"/><feFlood flood-opacity=".161"/><feComposite in2="blur-20" operator="in" result="result1"/><feComposite in="SourceGraphic" in2="result1"/></filter><filter id="v" filterUnits="userSpaceOnUse" height="42" width="95" x="469" y="214"><feOffset dx="2" dy="2"/><feGaussianBlur result="blur-21"/><feFlood flood-opacity=".161"/><feComposite in2="blur-21" operator="in" result="result1"/><feComposite in="SourceGraphic" in2="result1"/></filter><filter id="w" filterUnits="userSpaceOnUse" height="42" width="95" x="576" y="214"><feOffset dx="2" dy="2"/><feGaussianBlur result="blur-22"/><feFlood flood-opacity=".161"/><feComposite in2="blur-22" operator="in" result="result1"/><feComposite in="SourceGraphic" in2="result1"/></filter><filter id="x" filterUnits="userSpaceOnUse" height="42" width="95" x="683" y="214"><feOffset dx="2" dy="2"/><feGaussianBlur result="blur-23"/><feFlood flood-opacity=".161"/><feComposite in2="blur-23" operator="in" result="result1"/><feComposite in="SourceGraphic" in2="result1"/></filter><filter id="y" filterUnits="userSpaceOnUse" height="42" width="95" x="790" y="214"><feOffset dx="2" dy="2"/><feGaussianBlur result="blur-24"/><feFlood flood-opacity=".161"/><feComposite in2="blur-24" operator="in" result="result1"/><feComposite in="SourceGraphic" in2="result1"/></filter><filter id="z" filterUnits="userSpaceOnUse" height="42" width="95" x="41" y="271"><feOffset dx="2" dy="2"/><feGaussianBlur result="blur-25"/><feFlood flood-opacity=".161"/><feComposite in2="blur-25" operator="in" result="result1"/><feComposite in="SourceGraphic" in2="result1"/></filter><filter id="A" filterUnits="userSpaceOnUse" height="42" width="95" x="148" y="271"><feOffset dx="2" dy="2"/><feGaussianBlur result="blur-26"/><feFlood flood-opacity=".161"/><feComposite in2="blur-26" operator="in" result="result1"/><feComposite in="SourceGraphic" in2="result1"/></filter><filter id="B" filterUnits="userSpaceOnUse" height="42" width="95" x="255" y="271"><feOffset dx="2" dy="2"/><feGaussianBlur result="blur-27"/><feFlood flood-opacity=".161"/><feComposite in2="blur-27" operator="in" result="result1"/><feComposite in="SourceGraphic" in2="result1"/></filter><filter id="C" filterUnits="userSpaceOnUse" height="42" width="95" x="362" y="271"><feOffset dx="2" dy="2"/><feGaussianBlur result="blur-28"/><feFlood flood-opacity=".161"/><feComposite in2="blur-28" operator="in" result="result1"/><feComposite in="SourceGraphic" in2="result1"/></filter><filter id="D" filterUnits="userSpaceOnUse" height="42" width="95" x="469" y="271"><feOffset dx="2" dy="2"/><feGaussianBlur result="blur-29"/><feFlood flood-opacity=".161"/><feComposite in2="blur-29" operator="in" result="result1"/><feComposite in="SourceGraphic" in2="result1"/></filter><filter id="E" filterUnits="userSpaceOnUse" height="42" width="95" x="576" y="271"><feOffset dx="2" dy="2"/><feGaussianBlur result="blur-30"/><feFlood flood-opacity=".161"/><feComposite in2="blur-30" operator="in" result="result1"/><feComposite in="SourceGraphic" in2="result1"/></filter><filter id="F" filterUnits="userSpaceOnUse" height="42" width="95" x="683" y="271"><feOffset dx="2" dy="2"/><feGaussianBlur result="blur-31"/><feFlood flood-opacity=".161"/><feComposite in2="blur-31" operator="in" result="result1"/><feComposite in="SourceGraphic" in2="result1"/></filter><filter id="G" filterUnits="userSpaceOnUse" height="42" width="95" x="790" y="271"><feOffset dx="2" dy="2"/><feGaussianBlur result="blur-32"/><feFlood flood-opacity=".161"/><feComposite in2="blur-32" operator="in" result="result1"/><feComposite in="SourceGraphic" in2="result1"/></filter><filter id="H" filterUnits="userSpaceOnUse" height="42" width="95" x="41" y="328"><feOffset dx="2" dy="2"/><feGaussianBlur result="blur-33"/><feFlood flood-opacity=".161"/><feComposite in2="blur-33" operator="in" result="result1"/><feComposite in="SourceGraphic" in2="result1"/></filter><filter id="I" filterUnits="userSpaceOnUse" height="42" width="95" x="148" y="328"><feOffset dx="2" dy="2"/><feGaussianBlur result="blur-34"/><feFlood flood-opacity=".161"/><feComposite in2="blur-34" operator="in" result="result1"/><feComposite in="SourceGraphic" in2="result1"/></filter><filter id="J" filterUnits="userSpaceOnUse" height="42" width="95" x="255" y="328"><feOffset dx="2" dy="2"/><feGaussianBlur result="blur-35"/><feFlood flood-opacity=".161"/><feComposite in2="blur-35" operator="in" result="result1"/><feComposite in="SourceGraphic" in2="result1"/></filter><filter id="K" filterUnits="userSpaceOnUse" height="42" width="95" x="362" y="328"><feOffset dx="2" dy="2"/><feGaussianBlur result="blur-36"/><feFlood flood-opacity=".161"/><feComposite in2="blur-36" operator="in" result="result1"/><feComposite in="SourceGraphic" in2="result1"/></filter><filter id="L" filterUnits="userSpaceOnUse" height="42" width="95" x="469" y="328"><feOffset dx="2" dy="2"/><feGaussianBlur result="blur-37"/><feFlood flood-opacity=".161"/><feComposite in2="blur-37" operator="in" result="result1"/><feComposite in="SourceGraphic" in2="result1"/></filter><filter id="M" filterUnits="userSpaceOnUse" height="42" width="95" x="576" y="328"><feOffset dx="2" dy="2"/><feGaussianBlur result="blur-38"/><feFlood flood-opacity=".161"/><feComposite in2="blur-38" operator="in" result="result1"/><feComposite in="SourceGraphic" in2="result1"/></filter><filter id="N" filterUnits="userSpaceOnUse" height="42" width="95" x="683" y="328"><feOffset dx="2" dy="2"/><feGaussianBlur result="blur-39"/><feFlood flood-opacity=".161"/><feComposite in2="blur-39" operator="in" result="result1"/><feComposite in="SourceGraphic" in2="result1"/></filter><filter id="O" filterUnits="userSpaceOnUse" height="42" width="95" x="790" y="328"><feOffset dx="2" dy="2"/><feGaussianBlur result="blur-40"/><feFlood flood-opacity=".161"/><feComposite in2="blur-40" operator="in" result="result1"/><feComposite in="SourceGraphic" in2="result1"/></filter><filter id="P" filterUnits="userSpaceOnUse" height="42" width="95" x="41" y="385"><feOffset dx="2" dy="2"/><feGaussianBlur result="blur-41"/><feFlood flood-opacity=".161"/><feComposite in2="blur-41" operator="in" result="result1"/><feComposite in="SourceGraphic" in2="result1"/></filter><filter id="Q" filterUnits="userSpaceOnUse" height="42" width="95" x="148" y="385"><feOffset dx="2" dy="2"/><feGaussianBlur result="blur-42"/><feFlood flood-opacity=".161"/><feComposite in2="blur-42" operator="in" result="result1"/><feComposite in="SourceGraphic" in2="result1"/></filter><filter id="R" filterUnits="userSpaceOnUse" height="42" width="95" x="255" y="385"><feOffset dx="2" dy="2"/><feGaussianBlur result="blur-43"/><feFlood flood-opacity=".161"/><feComposite in2="blur-43" operator="in" result="result1"/><feComposite in="SourceGraphic" in2="result1"/></filter><filter id="S" filterUnits="userSpaceOnUse" height="42" width="95" x="362" y="385"><feOffset dx="2" dy="2"/><feGaussianBlur result="blur-44"/><feFlood flood-opacity=".161"/><feComposite in2="blur-44" operator="in" result="result1"/><feComposite in="SourceGraphic" in2="result1"/></filter><filter id="T" filterUnits="userSpaceOnUse" height="42" width="95" x="469" y="385"><feOffset dx="2" dy="2"/><feGaussianBlur result="blur-45"/><feFlood flood-opacity=".161"/><feComposite in2="blur-45" operator="in" result="result1"/><feComposite in="SourceGraphic" in2="result1"/></filter><filter id="U" filterUnits="userSpaceOnUse" height="42" width="95" x="576" y="385"><feOffset dx="2" dy="2"/><feGaussianBlur result="blur-46"/><feFlood flood-opacity=".161"/><feComposite in2="blur-46" operator="in" result="result1"/><feComposite in="SourceGraphic" in2="result1"/></filter><filter id="V" filterUnits="userSpaceOnUse" height="42" width="95" x="683" y="385"><feOffset dx="2" dy="2"/><feGaussianBlur result="blur-47"/><feFlood flood-opacity=".161"/><feComposite in2="blur-47" operator="in" result="result1"/><feComposite in="SourceGraphic" in2="result1"/></filter><filter id="W" filterUnits="userSpaceOnUse" height="42" width="95" x="790" y="385"><feOffset dx="2" dy="2"/><feGaussianBlur result="blur-48"/><feFlood flood-opacity=".161"/><feComposite in2="blur-48" operator="in" result="result1"/><feComposite in="SourceGraphic" in2="result1"/></filter><filter id="X" filterUnits="userSpaceOnUse" height="42" width="95" x="41" y="442"><feOffset dx="2" dy="2"/><feGaussianBlur result="blur-49"/><feFlood flood-opacity=".161"/><feComposite in2="blur-49" operator="in" result="result1"/><feComposite in="SourceGraphic" in2="result1"/></filter><filter id="Y" filterUnits="userSpaceOnUse" height="42" width="95" x="148" y="442"><feOffset dx="2" dy="2"/><feGaussianBlur result="blur-50"/><feFlood flood-opacity=".161"/><feComposite in2="blur-50" operator="in" result="result1"/><feComposite in="SourceGraphic" in2="result1"/></filter><filter id="Z" filterUnits="userSpaceOnUse" height="42" width="95" x="255" y="442"><feOffset dx="2" dy="2"/><feGaussianBlur result="blur-51"/><feFlood flood-opacity=".161"/><feComposite in2="blur-51" operator="in" result="result1"/><feComposite in="SourceGraphic" in2="result1"/></filter><filter id="aa" filterUnits="userSpaceOnUse" height="42" width="95" x="362" y="442"><feOffset dx="2" dy="2"/><feGaussianBlur result="blur-52"/><feFlood flood-opacity=".161"/><feComposite in2="blur-52" operator="in" result="result1"/><feComposite in="SourceGraphic" in2="result1"/></filter><filter id="ab" filterUnits="userSpaceOnUse" height="42" width="95" x="469" y="442"><feOffset dx="2" dy="2"/><feGaussianBlur result="blur-53"/><feFlood flood-opacity=".161"/><feComposite in2="blur-53" operator="in" result="result1"/><feComposite in="SourceGraphic" in2="result1"/></filter><filter id="ac" filterUnits="userSpaceOnUse" height="42" width="95" x="576" y="442"><feOffset dx="2" dy="2"/><feGaussianBlur result="blur-54"/><feFlood flood-opacity=".161"/><feComposite in2="blur-54" operator="in" result="result1"/><feComposite in="SourceGraphic" in2="result1"/></filter><filter id="ad" filterUnits="userSpaceOnUse" height="42" width="95" x="683" y="442"><feOffset dx="2" dy="2"/><feGaussianBlur result="blur-55"/><feFlood flood-opacity=".161"/><feComposite in2="blur-55" operator="in" result="result1"/><feComposite in="SourceGraphic" in2="result1"/></filter><filter id="ae" filterUnits="userSpaceOnUse" height="42" width="95" x="790" y="442"><feOffset dx="2" dy="2"/><feGaussianBlur result="blur-56"/><feFlood flood-opacity=".161"/><feComposite in2="blur-56" operator="in" result="result1"/><feComposite in="SourceGraphic" in2="result1"/></filter><filter id="af" filterUnits="userSpaceOnUse" height="42" width="95" x="41" y="499"><feOffset dx="2" dy="2"/><feGaussianBlur result="blur-57"/><feFlood flood-opacity=".161"/><feComposite in2="blur-57" operator="in" result="result1"/><feComposite in="SourceGraphic" in2="result1"/></filter><filter id="ag" filterUnits="userSpaceOnUse" height="42" width="95" x="148" y="499"><feOffset dx="2" dy="2"/><feGaussianBlur result="blur-58"/><feFlood flood-opacity=".161"/><feComposite in2="blur-58" operator="in" result="result1"/><feComposite in="SourceGraphic" in2="result1"/></filter><filter id="ah" filterUnits="userSpaceOnUse" height="42" width="95" x="255" y="499"><feOffset dx="2" dy="2"/><feGaussianBlur result="blur-59"/><feFlood flood-opacity=".161"/><feComposite in2="blur-59" operator="in" result="result1"/><feComposite in="SourceGraphic" in2="result1"/></filter><filter id="ai" filterUnits="userSpaceOnUse" height="42" width="95" x="362" y="499"><feOffset dx="2" dy="2"/><feGaussianBlur result="blur-60"/><feFlood flood-opacity=".161"/><feComposite in2="blur-60" operator="in" result="result1"/><feComposite in="SourceGraphic" in2="result1"/></filter><filter id="aj" filterUnits="userSpaceOnUse" height="42" width="95" x="469" y="499"><feOffset dx="2" dy="2"/><feGaussianBlur result="blur-61"/><feFlood flood-opacity=".161"/><feComposite in2="blur-61" operator="in" result="result1"/><feComposite in="SourceGraphic" in2="result1"/></filter><filter id="ak" filterUnits="userSpaceOnUse" height="42" width="95" x="576" y="499"><feOffset dx="2" dy="2"/><feGaussianBlur result="blur-62"/><feFlood flood-opacity=".161"/><feComposite in2="blur-62" operator="in" result="result1"/><feComposite in="SourceGraphic" in2="result1"/></filter><filter id="al" filterUnits="userSpaceOnUse" height="42" width="95" x="683" y="499"><feOffset dx="2" dy="2"/><feGaussianBlur result="blur-63"/><feFlood flood-opacity=".161"/><feComposite in2="blur-63" operator="in" result="result1"/><feComposite in="SourceGraphic" in2="result1"/></filter><filter id="am" filterUnits="userSpaceOnUse" height="42" width="95" x="790" y="499"><feOffset dx="2" dy="2"/><feGaussianBlur result="blur-64"/><feFlood flood-opacity=".161"/><feComposite in2="blur-64" operator="in" result="result1"/><feComposite in="SourceGraphic" in2="result1"/></filter><clipPath id="an"><path d="m0 0h54v452h-54z"/></clipPath><filter id="ao" filterUnits="userSpaceOnUse" height="53" width="53" x="912" y="95"><feOffset dx="3" dy="3"/><feGaussianBlur result="blur-65"/><feFlood flood-opacity=".161"/><feComposite in2="blur-65" operator="in" result="result1"/><feComposite in="SourceGraphic" in2="result1"/></filter><filter id="ap" filterUnits="userSpaceOnUse" height="53" width="53" x="912" y="152"><feOffset dx="3" dy="3"/><feGaussianBlur result="blur-66"/><feFlood flood-opacity=".161"/><feComposite in2="blur-66" operator="in" result="result1"/><feComposite in="SourceGraphic" in2="result1"/></filter><filter id="aq" filterUnits="userSpaceOnUse" height="53" width="53" x="912" y="209"><feOffset dx="3" dy="3"/><feGaussianBlur result="blur-67"/><feFlood flood-opacity=".161"/><feComposite in2="blur-67" operator="in" result="result1"/><feComposite in="SourceGraphic" in2="result1"/></filter><filter id="ar" filterUnits="userSpaceOnUse" height="53" width="53" x="912" y="266"><feOffset dx="3" dy="3"/><feGaussianBlur result="blur-68"/><feFlood flood-opacity=".161"/><feComposite in2="blur-68" operator="in" result="result1"/><feComposite in="SourceGraphic" in2="result1"/></filter><filter id="as" filterUnits="userSpaceOnUse" height="53" width="53" x="912" y="323"><feOffset dx="3" dy="3"/><feGaussianBlur result="blur-69"/><feFlood flood-opacity=".161"/><feComposite in2="blur-69" operator="in" result="result1"/><feComposite in="SourceGraphic" in2="result1"/></filter><filter id="at" filterUnits="userSpaceOnUse" height="53" width="53" x="912" y="380"><feOffset dx="3" dy="3"/><feGaussianBlur result="blur-70"/><feFlood flood-opacity=".161"/><feComposite in2="blur-70" operator="in" result="result1"/><feComposite in="SourceGraphic" in2="result1"/></filter><filter id="au" filterUnits="userSpaceOnUse" height="53" width="53" x="912" y="437"><feOffset dx="3" dy="3"/><feGaussianBlur result="blur-71"/><feFlood flood-opacity=".161"/><feComposite in2="blur-71" operator="in" result="result1"/><feComposite in="SourceGraphic" in2="result1"/></filter><filter id="av" filterUnits="userSpaceOnUse" height="53" width="53" x="912" y="494"><feOffset dx="3" dy="3"/><feGaussianBlur result="blur-72"/><feFlood flood-opacity=".161"/><feComposite in2="blur-72" operator="in" result="result1"/><feComposite in="SourceGraphic" in2="result1"/></filter><clipPath id="aw"><path d="m0 0h801v53h-801z"/></clipPath><filter id="ax" filterUnits="userSpaceOnUse" height="53" width="53" x="64" y="562"><feOffset dx="3" dy="3"/><feGaussianBlur result="blur-73"/><feFlood flood-opacity=".161"/><feComposite in2="blur-73" operator="in" result="result1"/><feComposite in="SourceGraphic" in2="result1"/></filter><filter id="ay" filterUnits="userSpaceOnUse" height="53" width="53" x="170" y="562"><feOffset dx="3" dy="3"/><feGaussianBlur result="blur-74"/><feFlood flood-opacity=".161"/><feComposite in2="blur-74" operator="in" result="result1"/><feComposite in="SourceGraphic" in2="result1"/></filter><filter id="az" filterUnits="userSpaceOnUse" height="53" width="53" x="276" y="562"><feOffset dx="3" dy="3"/><feGaussianBlur result="blur-75"/><feFlood flood-opacity=".161"/><feComposite in2="blur-75" operator="in" result="result1"/><feComposite in="SourceGraphic" in2="result1"/></filter><filter id="aA" filterUnits="userSpaceOnUse" height="53" width="53" x="382" y="562"><feOffset dx="3" dy="3"/><feGaussianBlur result="blur-76"/><feFlood flood-opacity=".161"/><feComposite in2="blur-76" operator="in" result="result1"/><feComposite in="SourceGraphic" in2="result1"/></filter><filter id="aB" filterUnits="userSpaceOnUse" height="53" width="53" x="488" y="562"><feOffset dx="3" dy="3"/><feGaussianBlur result="blur-77"/><feFlood flood-opacity=".161"/><feComposite in2="blur-77" operator="in" result="result1"/><feComposite in="SourceGraphic" in2="result1"/></filter><filter id="aC" filterUnits="userSpaceOnUse" height="53" width="53" x="594" y="562"><feOffset dx="3" dy="3"/><feGaussianBlur result="blur-78"/><feFlood flood-opacity=".161"/><feComposite in2="blur-78" operator="in" result="result1"/><feComposite in="SourceGraphic" in2="result1"/></filter><filter id="aD" filterUnits="userSpaceOnUse" height="53" width="53" x="700" y="562"><feOffset dx="3" dy="3"/><feGaussianBlur result="blur-79"/><feFlood flood-opacity=".161"/><feComposite in2="blur-79" operator="in" result="result1"/><feComposite in="SourceGraphic" in2="result1"/></filter><filter id="aE" filterUnits="userSpaceOnUse" height="53" width="53" x="806" y="562"><feOffset dx="3" dy="3"/><feGaussianBlur result="blur-80"/><feFlood flood-opacity=".161"/><feComposite in2="blur-80" operator="in" result="result1"/><feComposite in="SourceGraphic" in2="result1"/></filter><filter id="aF" filterUnits="userSpaceOnUse" height="49" width="49" x="914" y="566"><feOffset dx="3" dy="3"/><feGaussianBlur result="blur-81"/><feFlood flood-opacity=".161"/><feComposite in2="blur-81" operator="in" result="result1"/><feComposite in="SourceGraphic" in2="result1"/></filter><clipPath id="aG"><path d="m0 0h948v223h-948z"/></clipPath><clipPath id="aH"><path d="m0 0h1024v886h-1024z"/></clipPath><g clip-path="url(#aH)"><rect fill="#464646" height="886" rx="10" width="1024"/><g clip-path="url(#a)" transform="translate(41 100)"><g filter="url(#b)" transform="translate(-41 -100)"><rect fill="#fff" height="40" rx="4" transform="translate(41 100)" width="93"/></g><g filter="url(#c)" transform="translate(-41 -100)"><rect fill="#fff" height="40" rx="4" transform="translate(148 100)" width="93"/></g><g filter="url(#d)" transform="translate(-41 -100)"><rect fill="#fff" height="40" rx="4" transform="translate(255 100)" width="93"/></g><g filter="url(#e)" transform="translate(-41 -100)"><rect fill="#fff" height="40" rx="4" transform="translate(362 100)" width="93"/></g><g filter="url(#f)" transform="translate(-41 -100)"><rect fill="#fff" height="40" rx="4" transform="translate(469 100)" width="93"/></g><g filter="url(#g)" transform="translate(-41 -100)"><rect fill="#fff" height="40" rx="4" transform="translate(576 100)" width="93"/></g><g filter="url(#h)" transform="translate(-41 -100)"><rect fill="#fff" height="40" rx="4" transform="translate(683 100)" width="93"/></g><g filter="url(#i)" transform="translate(-41 -100)"><rect fill="#fff" height="40" rx="4" transform="translate(790 100)" width="93"/></g><g filter="url(#j)" transform="translate(-41 -100)"><rect fill="#fff" height="40" rx="4" transform="translate(41 157)" width="93"/></g><g filter="url(#k)" transform="translate(-41 -100)"><rect fill="#fff" height="40" rx="4" transform="translate(148 157)" width="93"/></g><g filter="url(#l)" transform="translate(-41 -100)"><rect fill="#fff" height="40" rx="4" transform="translate(255 157)" width="93"/></g><g filter="url(#m)" transform="translate(-41 -100)"><rect fill="#fff" height="40" rx="4" transform="translate(362 157)" width="93"/></g><g filter="url(#n)" transform="translate(-41 -100)"><rect fill="#fff" height="40" rx="4" transform="translate(469 157)" width="93"/></g><g filter="url(#o)" transform="translate(-41 -100)"><rect fill="#fff" height="40" rx="4" transform="translate(576 157)" width="93"/></g><g filter="url(#p)" transform="translate(-41 -100)"><rect fill="#fff" height="40" rx="4" transform="translate(683 157)" width="93"/></g><g filter="url(#q)" transform="translate(-41 -100)"><rect fill="#fff" height="40" rx="4" transform="translate(790 157)" width="93"/></g><g filter="url(#r)" transform="translate(-41 -100)"><rect fill="#fff" height="40" rx="4" transform="translate(41 214)" width="93"/></g><g filter="url(#s)" transform="translate(-41 -100)"><rect fill="#fff" height="40" rx="4" transform="translate(148 214)" width="93"/></g><g filter="url(#t)" transform="translate(-41 -100)"><rect fill="#fff" height="40" rx="4" transform="translate(255 214)" width="93"/></g><g filter="url(#u)" transform="translate(-41 -100)"><rect fill="#fff" height="40" rx="4" transform="translate(362 214)" width="93"/></g><g filter="url(#v)" transform="translate(-41 -100)"><rect fill="#fff" height="40" rx="4" transform="translate(469 214)" width="93"/></g><g filter="url(#w)" transform="translate(-41 -100)"><rect fill="#fff" height="40" rx="4" transform="translate(576 214)" width="93"/></g><g filter="url(#x)" transform="translate(-41 -100)"><rect fill="#fff" height="40" rx="4" transform="translate(683 214)" width="93"/></g><g filter="url(#y)" transform="translate(-41 -100)"><rect fill="#fff" height="40" rx="4" transform="translate(790 214)" width="93"/></g><g filter="url(#z)" transform="translate(-41 -100)"><rect fill="#fff" height="40" rx="4" transform="translate(41 271)" width="93"/></g><g filter="url(#A)" transform="translate(-41 -100)"><rect fill="#fff" height="40" rx="4" transform="translate(148 271)" width="93"/></g><g filter="url(#B)" transform="translate(-41 -100)"><rect fill="#fff" height="40" rx="4" transform="translate(255 271)" width="93"/></g><g filter="url(#C)" transform="translate(-41 -100)"><rect fill="#fff" height="40" rx="4" transform="translate(362 271)" width="93"/></g><g filter="url(#D)" transform="translate(-41 -100)"><rect fill="#fff" height="40" rx="4" transform="translate(469 271)" width="93"/></g><g filter="url(#E)" transform="translate(-41 -100)"><rect fill="#fff" height="40" rx="4" transform="translate(576 271)" width="93"/></g><g filter="url(#F)" transform="translate(-41 -100)"><rect fill="#fff" height="40" rx="4" transform="translate(683 271)" width="93"/></g><g filter="url(#G)" transform="translate(-41 -100)"><rect fill="#fff" height="40" rx="4" transform="translate(790 271)" width="93"/></g><g filter="url(#H)" transform="translate(-41 -100)"><rect fill="#fff" height="40" rx="4" transform="translate(41 328)" width="93"/></g><g filter="url(#I)" transform="translate(-41 -100)"><rect fill="#fff" height="40" rx="4" transform="translate(148 328)" width="93"/></g><g filter="url(#J)" transform="translate(-41 -100)"><rect fill="#fff" height="40" rx="4" transform="translate(255 328)" width="93"/></g><g filter="url(#K)" transform="translate(-41 -100)"><rect fill="#fff" height="40" rx="4" transform="translate(362 328)" width="93"/></g><g filter="url(#L)" transform="translate(-41 -100)"><rect fill="#fff" height="40" rx="4" transform="translate(469 328)" width="93"/></g><g filter="url(#M)" transform="translate(-41 -100)"><rect fill="#fff" height="40" rx="4" transform="translate(576 328)" width="93"/></g><g filter="url(#N)" transform="translate(-41 -100)"><rect fill="#fff" height="40" rx="4" transform="translate(683 328)" width="93"/></g><g filter="url(#O)" transform="translate(-41 -100)"><rect fill="#fff" height="40" rx="4" transform="translate(790 328)" width="93"/></g><g filter="url(#P)" transform="translate(-41 -100)"><rect fill="#fff" height="40" rx="4" transform="translate(41 385)" width="93"/></g><g filter="url(#Q)" transform="translate(-41 -100)"><rect fill="#fff" height="40" rx="4" transform="translate(148 385)" width="93"/></g><g filter="url(#R)" transform="translate(-41 -100)"><rect fill="#fff" height="40" rx="4" transform="translate(255 385)" width="93"/></g><g filter="url(#S)" transform="translate(-41 -100)"><rect fill="#fff" height="40" rx="4" transform="translate(362 385)" width="93"/></g><g filter="url(#T)" transform="translate(-41 -100)"><rect fill="#fff" height="40" rx="4" transform="translate(469 385)" width="93"/></g><g filter="url(#U)" transform="translate(-41 -100)"><rect fill="#fff" height="40" rx="4" transform="translate(576 385)" width="93"/></g><g filter="url(#V)" transform="translate(-41 -100)"><rect fill="#fff" height="40" rx="4" transform="translate(683 385)" width="93"/></g><g filter="url(#W)" transform="translate(-41 -100)"><rect fill="#fff" height="40" rx="4" transform="translate(790 385)" width="93"/></g><g filter="url(#X)" transform="translate(-41 -100)"><rect fill="#fff" height="40" rx="4" transform="translate(41 442)" width="93"/></g><g filter="url(#Y)" transform="translate(-41 -100)"><rect fill="#fff" height="40" rx="4" transform="translate(148 442)" width="93"/></g><g filter="url(#Z)" transform="translate(-41 -100)"><rect fill="#fff" height="40" rx="4" transform="translate(255 442)" width="93"/></g><g filter="url(#aa)" transform="translate(-41 -100)"><rect fill="#fff" height="40" rx="4" transform="translate(362 442)" width="93"/></g><g filter="url(#ab)" transform="translate(-41 -100)"><rect fill="#fff" height="40" rx="4" transform="translate(469 442)" width="93"/></g><g filter="url(#ac)" transform="translate(-41 -100)"><rect fill="#fff" height="40" rx="4" transform="translate(576 442)" width="93"/></g><g filter="url(#ad)" transform="translate(-41 -100)"><rect fill="#fff" height="40" rx="4" transform="translate(683 442)" width="93"/></g><g filter="url(#ae)" transform="translate(-41 -100)"><rect fill="#fff" height="40" rx="4" transform="translate(790 442)" width="93"/></g><g filter="url(#af)" transform="translate(-41 -100)"><rect fill="#fff" height="40" rx="4" transform="translate(41 499)" width="93"/></g><g filter="url(#ag)" transform="translate(-41 -100)"><rect fill="#fff" height="40" rx="4" transform="translate(148 499)" width="93"/></g><g filter="url(#ah)" transform="translate(-41 -100)"><rect fill="#fff" height="40" rx="4" transform="translate(255 499)" width="93"/></g><g filter="url(#ai)" transform="translate(-41 -100)"><rect fill="#fff" height="40" rx="4" transform="translate(362 499)" width="93"/></g><g filter="url(#aj)" transform="translate(-41 -100)"><rect fill="#fff" height="40" rx="4" transform="translate(469 499)" width="93"/></g><g filter="url(#ak)" transform="translate(-41 -100)"><rect fill="#fff" height="40" rx="4" transform="translate(576 499)" width="93"/></g><g filter="url(#al)" transform="translate(-41 -100)"><rect fill="#fff" height="40" rx="4" transform="translate(683 499)" width="93"/></g><g filter="url(#am)" transform="translate(-41 -100)"><rect fill="#fff" height="40" rx="4" transform="translate(790 499)" width="93"/></g></g><g clip-path="url(#an)" transform="translate(912 95)"><g filter="url(#ao)" transform="translate(-912 -95)"><g fill="#fff" stroke="#fff" stroke-width="4" transform="translate(912 95)"><circle cx="25" cy="25" r="25" stroke="none"/><circle cx="25" cy="25" fill="none" r="23"/></g></g><g filter="url(#ap)" transform="translate(-912 -95)"><g fill="#fff" stroke="#fff" stroke-width="4" transform="translate(912 152)"><circle cx="25" cy="25" r="25" stroke="none"/><circle cx="25" cy="25" fill="none" r="23"/></g></g><g filter="url(#aq)" transform="translate(-912 -95)"><g fill="#fff" stroke="#fff" stroke-width="4" transform="translate(912 209)"><circle cx="25" cy="25" r="25" stroke="none"/><circle cx="25" cy="25" fill="none" r="23"/></g></g><g filter="url(#ar)" transform="translate(-912 -95)"><g fill="#fff" stroke="#fff" stroke-width="4" transform="translate(912 266)"><circle cx="25" cy="25" r="25" stroke="none"/><circle cx="25" cy="25" fill="none" r="23"/></g></g><g filter="url(#as)" transform="translate(-912 -95)"><g fill="#fff" stroke="#fff" stroke-width="4" transform="translate(912 323)"><circle cx="25" cy="25" r="25" stroke="none"/><circle cx="25" cy="25" fill="none" r="23"/></g></g><g filter="url(#at)" transform="translate(-912 -95)"><g fill="#fff" stroke="#fff" stroke-width="4" transform="translate(912 380)"><circle cx="25" cy="25" r="25" stroke="none"/><circle cx="25" cy="25" fill="none" r="23"/></g></g><g filter="url(#au)" transform="translate(-912 -95)"><g fill="#fff" stroke="#fff" stroke-width="4" transform="translate(912 437)"><circle cx="25" cy="25" r="25" stroke="none"/><circle cx="25" cy="25" fill="none" r="23"/></g></g><g filter="url(#av)" transform="translate(-912 -95)"><g fill="#fff" stroke="#fff" stroke-width="4" transform="translate(912 494)"><circle cx="25" cy="25" r="25" stroke="none"/><circle cx="25" cy="25" fill="none" r="23"/></g></g></g><g clip-path="url(#aw)" transform="translate(64 562)"><g filter="url(#ax)" transform="translate(-64 -562)"><g fill="#fff" stroke="#fff" stroke-width="4" transform="translate(64 562)"><circle cx="25" cy="25" r="25" stroke="none"/><circle cx="25" cy="25" fill="none" r="23"/></g></g><g filter="url(#ay)" transform="translate(-64 -562)"><g fill="#fff" stroke="#fff" stroke-width="4" transform="translate(170 562)"><circle cx="25" cy="25" r="25" stroke="none"/><circle cx="25" cy="25" fill="none" r="23"/></g></g><g filter="url(#az)" transform="translate(-64 -562)"><g fill="#fff" stroke="#fff" stroke-width="4" transform="translate(276 562)"><circle cx="25" cy="25" r="25" stroke="none"/><circle cx="25" cy="25" fill="none" r="23"/></g></g><g filter="url(#aA)" transform="translate(-64 -562)"><g fill="#fff" stroke="#fff" stroke-width="4" transform="translate(382 562)"><circle cx="25" cy="25" r="25" stroke="none"/><circle cx="25" cy="25" fill="none" r="23"/></g></g><g filter="url(#aB)" transform="translate(-64 -562)"><g fill="#fff" stroke="#fff" stroke-width="4" transform="translate(488 562)"><circle cx="25" cy="25" r="25" stroke="none"/><circle cx="25" cy="25" fill="none" r="23"/></g></g><g filter="url(#aC)" transform="translate(-64 -562)"><g fill="#fff" stroke="#fff" stroke-width="4" transform="translate(594 562)"><circle cx="25" cy="25" r="25" stroke="none"/><circle cx="25" cy="25" fill="none" r="23"/></g></g><g filter="url(#aD)" transform="translate(-64 -562)"><g fill="#fff" stroke="#fff" stroke-width="4" transform="translate(700 562)"><circle cx="25" cy="25" r="25" stroke="none"/><circle cx="25" cy="25" fill="none" r="23"/></g></g><g filter="url(#aE)" transform="translate(-64 -562)"><g fill="#fff" stroke="#fff" stroke-width="4" transform="translate(806 562)"><circle cx="25" cy="25" r="25" stroke="none"/><circle cx="25" cy="25" fill="none" r="23"/></g></g></g><g filter="url(#aF)"><rect fill="#fff" height="46" rx="4" transform="translate(914 566)" width="46"/></g><g clip-path="url(#aG)" transform="translate(41 638)"><g fill="#535353" stroke="#adadad" stroke-width="4"><rect height="223" rx="5" stroke="none" width="95"/><rect fill="none" height="219" rx="3" width="91" x="2" y="2"/></g><path d="m0 0h87v49h-87z" transform="translate(4 164)"/><g fill="#535353" stroke="#adadad" stroke-width="4" transform="translate(106)"><rect height="223" rx="5" stroke="none" width="95"/><rect fill="none" height="219" rx="3" width="91" x="2" y="2"/></g><path d="m0 0h87v49h-87z" transform="translate(110 164)"/><g fill="#535353" stroke="#adadad" stroke-width="4" transform="translate(212)"><rect height="223" rx="5" stroke="none" width="95"/><rect fill="none" height="219" rx="3" width="91" x="2" y="2"/></g><path d="m0 0h87v49h-87z" transform="translate(216 164)"/><g fill="#535353" stroke="#adadad" stroke-width="4" transform="translate(318)"><rect height="223" rx="5" stroke="none" width="95"/><rect fill="none" height="219" rx="3" width="91" x="2" y="2"/></g><path d="m0 0h87v49h-87z" transform="translate(322 164)"/><g fill="#535353" stroke="#adadad" stroke-width="4" transform="translate(424)"><rect height="223" rx="5" stroke="none" width="95"/><rect fill="none" height="219" rx="3" width="91" x="2" y="2"/></g><path d="m0 0h87v49h-87z" transform="translate(428 164)"/><g fill="#535353" stroke="#adadad" stroke-width="4" transform="translate(530)"><rect height="223" rx="5" stroke="none" width="95"/><rect fill="none" height="219" rx="3" width="91" x="2" y="2"/></g><path d="m0 0h87v49h-87z" transform="translate(534 164)"/><g fill="#535353" stroke="#adadad" stroke-width="4" transform="translate(636)"><rect height="223" rx="5" stroke="none" width="95"/><rect fill="none" height="219" rx="3" width="91" x="2" y="2"/></g><path d="m0 0h87v49h-87z" transform="translate(640 164)"/><g fill="#535353" stroke="#adadad" stroke-width="4" transform="translate(742)"><rect height="223" rx="5" stroke="none" width="95"/><rect fill="none" height="219" rx="3" width="91" x="2" y="2"/></g><path d="m0 0h87v49h-87z" transform="translate(746 164)"/><g fill="#535353" stroke="#adadad" stroke-width="4" transform="translate(848)"><rect height="223" rx="5" stroke="none" width="95"/><rect fill="none" height="219" rx="3" width="91" x="2" y="2"/></g><path d="m0 0h87v49h-87z" transform="translate(852 164)"/></g></g></svg>